<?xml version="1.0" encoding="UTF-8"?><svg id="Layer_2" xmlns="http://www.w3.org/2000/svg" viewBox="0 0 244.91 198"><g id="Layer_1-2"><path d="M0,171.9c0-.25.07-.45.2-.6.13-.15.33-.22.59-.22h11.46c.83,0,1.6.11,2.33.34.73.23,1.4.54,2.01.94.61.4,1.16.87,1.65,1.42.49.55.91,1.15,1.25,1.79.34.64.6,1.32.78,2.02.18.71.27,1.42.27,2.15,0,1.07-.19,2.11-.58,3.14s-.94,1.93-1.66,2.73c-.72.8-1.58,1.44-2.58,1.93-1,.49-2.12.75-3.34.76h-5.43v8.48c0,.51-.28.77-.82.77H.79c-.24,0-.43-.06-.57-.19-.14-.12-.22-.32-.22-.58v-24.87ZM13.5,179.71c0-.36-.06-.71-.19-1.07-.13-.36-.31-.67-.55-.95-.24-.28-.53-.51-.87-.69-.34-.18-.73-.27-1.16-.27h-3.8v5.95h3.8c.43,0,.82-.09,1.17-.26.35-.17.64-.39.87-.67.23-.27.41-.59.54-.94.13-.36.19-.72.19-1.1Z"/><path d="M46.49,196.22c0,.2-.04.4-.11.58-.07.18-.19.33-.36.44-.13.13-.29.21-.47.25-.18.04-.33.05-.47.05h-3.53c-.25,0-.45-.03-.61-.1s-.28-.16-.38-.28-.18-.26-.24-.44c-.07-.17-.13-.36-.21-.56l-.23-.8c-.32.32-.69.64-1.1.94-.41.31-.87.59-1.36.83-.5.24-1.03.44-1.6.59-.57.15-1.16.22-1.77.22-1.09,0-2.13-.14-3.13-.41-1-.27-1.93-.66-2.8-1.17-.87-.5-1.65-1.11-2.36-1.82-.71-.71-1.31-1.49-1.82-2.36-.51-.87-.9-1.8-1.17-2.81-.28-1-.41-2.05-.41-3.14,0-1.65.3-3.19.91-4.6.61-1.42,1.44-2.65,2.49-3.71,1.05-1.05,2.29-1.88,3.71-2.48,1.42-.6,2.95-.9,4.57-.9.74,0,1.43.08,2.07.25.64.17,1.23.39,1.76.68.53.29,1.01.63,1.44,1.02s.81.83,1.13,1.29l.52-1.62c.12-.3.22-.54.3-.72.08-.18.16-.32.25-.41s.2-.15.33-.18.32-.04.56-.04h2.67c.13,0,.29.02.47.05.18.04.33.12.47.25.17.13.29.28.36.44.07.17.11.36.11.57v20.08ZM28.82,186.24c0,.78.12,1.52.37,2.2.24.68.59,1.27,1.05,1.77.45.5,1,.89,1.64,1.18.64.29,1.35.44,2.13.44s1.54-.15,2.23-.44c.69-.29,1.28-.69,1.79-1.18.51-.5.91-1.09,1.19-1.77.29-.68.43-1.42.43-2.2s-.14-1.48-.43-2.17c-.29-.69-.68-1.29-1.19-1.82-.51-.52-1.11-.94-1.79-1.24-.69-.3-1.43-.45-2.23-.45s-1.49.15-2.13.45c-.64.3-1.19.72-1.64,1.24-.45.52-.8,1.13-1.05,1.82-.25.69-.37,1.41-.37,2.17Z"/><path d="M54.2,190.5c.32.32.67.59,1.05.81.38.22.74.4,1.09.53.35.14.65.23.91.29.26.06.44.09.54.09.23,0,.52,0,.87-.03.35-.02.69-.07,1.01-.16.32-.09.6-.23.83-.44.23-.2.35-.49.35-.86,0-.33-.07-.6-.2-.79-.13-.2-.32-.36-.57-.5-.25-.14-.56-.26-.92-.37s-.77-.23-1.23-.37c-1.43-.38-2.62-.84-3.55-1.37-.93-.53-1.67-1.13-2.21-1.79-.54-.66-.92-1.37-1.14-2.13s-.32-1.56-.32-2.4c0-.99.2-1.88.59-2.69.39-.81.96-1.5,1.69-2.08.73-.58,1.6-1.02,2.62-1.34,1.02-.31,2.15-.47,3.39-.47.75,0,1.46.06,2.12.19.66.12,1.29.32,1.88.59.6.27,1.18.61,1.75,1.03.57.42,1.13.92,1.69,1.51.2.24.31.46.31.67,0,.21-.13.43-.4.67-.47.38-.91.75-1.34,1.12-.42.37-.86.78-1.32,1.23-.14.12-.29.19-.43.22-.14.03-.28.03-.41,0s-.26-.09-.38-.18c-.12-.08-.23-.18-.32-.3-.42-.46-.9-.77-1.43-.93-.54-.16-1.04-.24-1.51-.24-.59,0-1.05.1-1.4.3-.35.2-.51.51-.48.93.02.31.14.55.35.72.21.17.47.31.77.42.3.11.63.19.97.26.34.07.65.14.94.22,1.08.34,2.06.72,2.96,1.12.9.4,1.67.9,2.33,1.49s1.17,1.29,1.53,2.11.55,1.82.55,2.99-.24,2.23-.71,3.15c-.47.93-1.12,1.7-1.95,2.33-.83.63-1.8,1.11-2.93,1.44-1.13.33-2.35.5-3.65.5-.74,0-1.49-.07-2.26-.2-.77-.13-1.51-.34-2.22-.63s-1.4-.67-2.04-1.12c-.65-.46-1.22-1.01-1.72-1.67-.13-.17-.23-.34-.3-.53-.07-.18-.1-.37-.09-.54,0-.18.04-.34.11-.49s.17-.28.31-.38l2.31-2.3c.29-.24.54-.32.76-.25.22.07.5.27.85.61Z"/><path d="M74.97,190.5c.32.32.67.59,1.05.81.38.22.74.4,1.09.53.35.14.65.23.91.29.26.06.44.09.54.09.23,0,.52,0,.87-.03.35-.02.69-.07,1.01-.16.32-.09.6-.23.83-.44.23-.2.35-.49.35-.86,0-.33-.07-.6-.2-.79-.13-.2-.32-.36-.57-.5-.25-.14-.56-.26-.92-.37s-.77-.23-1.23-.37c-1.43-.38-2.62-.84-3.55-1.37-.93-.53-1.67-1.13-2.21-1.79-.54-.66-.92-1.37-1.14-2.13s-.32-1.56-.32-2.4c0-.99.2-1.88.59-2.69.39-.81.96-1.5,1.69-2.08.73-.58,1.6-1.02,2.62-1.34,1.02-.31,2.15-.47,3.39-.47.75,0,1.46.06,2.12.19.66.12,1.29.32,1.88.59.6.27,1.18.61,1.75,1.03.57.42,1.13.92,1.69,1.51.2.24.31.46.31.67,0,.21-.13.43-.4.67-.47.38-.91.75-1.34,1.12-.42.37-.86.78-1.32,1.23-.14.12-.29.19-.43.22-.14.03-.28.03-.41,0s-.26-.09-.38-.18c-.12-.08-.23-.18-.32-.3-.42-.46-.9-.77-1.43-.93-.54-.16-1.04-.24-1.51-.24-.59,0-1.05.1-1.4.3-.35.2-.51.51-.48.93.02.31.14.55.35.72.21.17.47.31.77.42.3.11.63.19.97.26.34.07.65.14.94.22,1.08.34,2.06.72,2.96,1.12.9.4,1.67.9,2.33,1.49s1.17,1.29,1.53,2.11.55,1.82.55,2.99-.24,2.23-.71,3.15c-.47.93-1.12,1.7-1.95,2.33-.83.63-1.8,1.11-2.93,1.44-1.13.33-2.35.5-3.65.5-.74,0-1.49-.07-2.26-.2-.77-.13-1.51-.34-2.22-.63s-1.4-.67-2.04-1.12c-.65-.46-1.22-1.01-1.72-1.67-.13-.17-.23-.34-.3-.53-.07-.18-.1-.37-.09-.54,0-.18.04-.34.11-.49s.17-.28.31-.38l2.31-2.3c.29-.24.54-.32.76-.25.22.07.5.27.85.61Z"/><path d="M92.31,167.29c0-.5.11-.85.32-1.06s.55-.31,1-.31h4.16c.42,0,.76.1,1.01.31.26.21.39.56.39,1.06v3.47c0,.14-.03.3-.1.46s-.16.33-.28.48-.27.28-.44.38c-.17.1-.37.15-.58.15h-4.16c-.88,0-1.33-.49-1.33-1.48v-3.47ZM92.31,176.3c0-.38.11-.71.32-.98.22-.27.55-.41,1-.41h4.11c.14,0,.3.03.47.1s.32.16.47.28c.14.12.27.27.37.44s.15.36.15.57v19.86c0,.45-.13.79-.38,1.02s-.61.35-1.08.35h-4.11c-.88,0-1.33-.46-1.33-1.37v-19.86Z"/><path d="M102.8,186.24c0-1.09.14-2.14.42-3.15.28-1.01.68-1.94,1.18-2.81.51-.86,1.12-1.64,1.83-2.35.71-.71,1.5-1.31,2.38-1.81.87-.5,1.81-.88,2.82-1.16,1.01-.27,2.07-.41,3.17-.41,1.63,0,3.15.3,4.58.9,1.43.6,2.67,1.42,3.73,2.48,1.06,1.05,1.89,2.29,2.51,3.71.62,1.42.92,2.95.92,4.6,0,1.09-.14,2.14-.42,3.14-.28,1-.68,1.94-1.18,2.81-.51.87-1.12,1.65-1.83,2.36-.71.71-1.5,1.31-2.38,1.82-.87.5-1.81.89-2.81,1.17-1,.27-2.04.41-3.13.41s-2.16-.14-3.17-.41-1.95-.66-2.82-1.17c-.87-.5-1.67-1.11-2.38-1.82s-1.32-1.49-1.83-2.36c-.51-.87-.9-1.8-1.18-2.81-.28-1-.42-2.05-.42-3.14ZM109.35,186.24c0,.78.12,1.52.37,2.2.24.68.59,1.27,1.04,1.77.45.5.99.89,1.63,1.18.64.29,1.36.44,2.16.44s1.48-.15,2.11-.44c.63-.29,1.16-.69,1.6-1.18.44-.5.77-1.09,1-1.77.23-.68.35-1.42.35-2.2s-.12-1.48-.35-2.17c-.23-.69-.57-1.29-1-1.82s-.97-.94-1.6-1.24c-.63-.3-1.33-.45-2.11-.45s-1.52.15-2.16.45c-.64.3-1.18.72-1.63,1.24-.45.52-.8,1.13-1.04,1.82-.25.69-.37,1.41-.37,2.17Z"/><path d="M130.38,175.23c.16-.13.32-.21.49-.25.17-.04.34-.05.49-.05h2.71c.22,0,.4.04.56.12.16.08.29.18.39.31.11.13.19.28.26.44s.13.34.19.51l.38,1.56c.18-.37.47-.75.87-1.14.4-.39.9-.75,1.49-1.07s1.28-.58,2.05-.79c.78-.21,1.64-.31,2.6-.31,1.36,0,2.58.26,3.65.78,1.07.52,1.98,1.23,2.73,2.13s1.32,1.95,1.7,3.16c.39,1.2.58,2.49.58,3.85v11.67c0,.45-.1.79-.3,1.02s-.51.35-.94.35h-4.14c-.51,0-.87-.09-1.06-.26-.19-.17-.29-.51-.29-1.01v-11.6c0-.51-.12-.99-.35-1.45-.23-.46-.54-.86-.92-1.21-.38-.35-.82-.63-1.3-.83-.48-.2-.98-.3-1.48-.3-.43,0-.87.1-1.32.28-.45.19-.86.45-1.24.79-.38.34-.69.74-.95,1.19-.26.46-.4.95-.44,1.49v11.58c0,.2-.04.4-.12.61-.08.2-.19.36-.35.46-.16.09-.3.16-.44.2-.14.04-.3.05-.48.05h-4.05c-.51,0-.89-.12-1.11-.37-.23-.25-.34-.58-.34-1v-19.92c0-.22.05-.43.15-.62.1-.19.24-.34.42-.44l-.11.05Z"/><path d="M159.24,190.5c.32.32.67.59,1.05.81.38.22.74.4,1.09.53.35.14.65.23.91.29.26.06.44.09.54.09.23,0,.52,0,.87-.03.35-.02.69-.07,1.01-.16.32-.09.6-.23.83-.44.23-.2.35-.49.35-.86,0-.33-.07-.6-.2-.79-.13-.2-.32-.36-.57-.5-.25-.14-.56-.26-.92-.37s-.77-.23-1.23-.37c-1.43-.38-2.62-.84-3.55-1.37-.93-.53-1.67-1.13-2.21-1.79-.54-.66-.92-1.37-1.14-2.13s-.32-1.56-.32-2.4c0-.99.2-1.88.59-2.69.39-.81.96-1.5,1.69-2.08.73-.58,1.6-1.02,2.62-1.34,1.02-.31,2.15-.47,3.39-.47.75,0,1.46.06,2.12.19.66.12,1.29.32,1.88.59.6.27,1.18.61,1.75,1.03.57.42,1.13.92,1.69,1.51.2.24.31.46.31.67,0,.21-.13.43-.4.67-.47.38-.91.75-1.34,1.12-.42.37-.86.78-1.32,1.23-.14.12-.29.19-.43.22-.14.03-.28.03-.41,0s-.26-.09-.38-.18c-.12-.08-.23-.18-.32-.3-.42-.46-.9-.77-1.43-.93-.54-.16-1.04-.24-1.51-.24-.59,0-1.05.1-1.4.3-.35.2-.51.51-.48.93.02.31.14.55.35.72.21.17.47.31.77.42.3.11.63.19.97.26.34.07.65.14.94.22,1.08.34,2.06.72,2.96,1.12.9.4,1.67.9,2.33,1.49s1.17,1.29,1.53,2.11.55,1.82.55,2.99-.24,2.23-.71,3.15c-.47.93-1.12,1.7-1.95,2.33-.83.63-1.8,1.11-2.93,1.44-1.13.33-2.35.5-3.65.5-.74,0-1.49-.07-2.26-.2-.77-.13-1.51-.34-2.22-.63s-1.4-.67-2.04-1.12c-.65-.46-1.22-1.01-1.72-1.67-.13-.17-.23-.34-.3-.53-.07-.18-.1-.37-.09-.54,0-.18.04-.34.11-.49s.17-.28.31-.38l2.31-2.3c.29-.24.54-.32.76-.25.22.07.5.27.85.61Z"/><path d="M180.01,190.5c.32.32.67.59,1.05.81.38.22.74.4,1.09.53.35.14.65.23.91.29.26.06.44.09.54.09.23,0,.52,0,.87-.03.35-.02.69-.07,1.01-.16.32-.09.6-.23.83-.44.23-.2.35-.49.35-.86,0-.33-.07-.6-.2-.79-.13-.2-.32-.36-.57-.5-.25-.14-.56-.26-.92-.37s-.77-.23-1.23-.37c-1.43-.38-2.62-.84-3.55-1.37-.93-.53-1.67-1.13-2.21-1.79-.54-.66-.92-1.37-1.14-2.13s-.32-1.56-.32-2.4c0-.99.2-1.88.59-2.69.39-.81.96-1.5,1.69-2.08.73-.58,1.6-1.02,2.62-1.34,1.02-.31,2.15-.47,3.39-.47.75,0,1.46.06,2.12.19.66.12,1.29.32,1.88.59.6.27,1.18.61,1.75,1.03.57.42,1.13.92,1.69,1.51.2.24.31.46.31.67,0,.21-.13.43-.4.67-.47.38-.91.75-1.34,1.12-.42.37-.86.78-1.32,1.23-.14.12-.29.19-.43.22-.14.03-.28.03-.41,0s-.26-.09-.38-.18c-.12-.08-.23-.18-.32-.3-.42-.46-.9-.77-1.43-.93-.54-.16-1.04-.24-1.51-.24-.59,0-1.05.1-1.4.3-.35.2-.51.51-.48.93.02.31.14.55.35.72.21.17.47.31.77.42.3.11.63.19.97.26.34.07.65.14.94.22,1.08.34,2.06.72,2.96,1.12.9.4,1.67.9,2.33,1.49s1.17,1.29,1.53,2.11.55,1.82.55,2.99-.24,2.23-.71,3.15c-.47.93-1.12,1.7-1.95,2.33-.83.63-1.8,1.11-2.93,1.44-1.13.33-2.35.5-3.65.5-.74,0-1.49-.07-2.26-.2-.77-.13-1.51-.34-2.22-.63s-1.4-.67-2.04-1.12c-.65-.46-1.22-1.01-1.72-1.67-.13-.17-.23-.34-.3-.53-.07-.18-.1-.37-.09-.54,0-.18.04-.34.11-.49s.17-.28.31-.38l2.31-2.3c.29-.24.54-.32.76-.25.22.07.5.27.85.61Z"/><path d="M197.35,167.29c0-.5.11-.85.32-1.06s.55-.31,1-.31h4.16c.42,0,.76.1,1.01.31.26.21.39.56.39,1.06v3.47c0,.14-.03.3-.1.46s-.16.33-.28.48-.27.28-.44.38c-.17.1-.37.15-.58.15h-4.16c-.88,0-1.33-.49-1.33-1.48v-3.47ZM197.35,176.3c0-.38.11-.71.32-.98.22-.27.55-.41,1-.41h4.11c.14,0,.3.03.47.1s.32.16.47.28c.14.12.27.27.37.44s.15.36.15.57v19.86c0,.45-.13.79-.38,1.02s-.61.35-1.08.35h-4.11c-.88,0-1.33-.46-1.33-1.37v-19.86Z"/><path d="M209.92,171.39c0-.37.12-.64.37-.83.24-.18.59-.36,1.05-.53l4.07-1.41c.06-.01.12-.02.17-.02h.15c.44,0,.74.13.89.38.15.26.22.59.22,1.01l-.02,4.9h2.46c.38,0,.69.11.93.34.24.23.36.56.36,1.02v3.44c0,.5-.12.86-.36,1.1s-.55.35-.93.35h-2.46l.02,15.03c0,.45-.13.79-.39,1.02s-.63.35-1.09.35h-4.05c-.92,0-1.38-.46-1.38-1.37l-.02-15.03h-1.85c-.92,0-1.38-.48-1.38-1.44v-3.44c0-.9.46-1.35,1.38-1.35h1.85l.02-3.51Z"/><path d="M242.35,194.83c-1.05.96-2.24,1.71-3.55,2.25-1.32.54-2.71.81-4.18.81-1.64,0-3.19-.3-4.64-.89-1.46-.59-2.74-1.42-3.84-2.47s-1.97-2.29-2.62-3.71c-.65-1.43-.97-2.97-.97-4.65,0-1.04.13-2.06.39-3.04.26-.98.62-1.9,1.09-2.75s1.05-1.64,1.72-2.36c.68-.72,1.43-1.33,2.27-1.84s1.75-.91,2.73-1.19c.98-.28,2.01-.43,3.1-.43.99,0,1.95.13,2.89.39.93.26,1.81.63,2.63,1.1s1.57,1.05,2.25,1.71c.68.67,1.27,1.39,1.76,2.18.49.79.87,1.63,1.14,2.53.27.9.4,1.82.4,2.77,0,.62,0,1.12-.03,1.51-.02.39-.11.7-.28.93-.17.23-.45.39-.83.48s-.96.13-1.71.13h-12.91c.12.76.36,1.4.73,1.91.36.51.79.92,1.26,1.22.48.3.99.52,1.52.65.54.13,1.05.2,1.52.2.43,0,.87-.04,1.33-.13s.89-.21,1.32-.36c.42-.15.81-.32,1.17-.52.35-.2.64-.4.85-.61.19-.15.36-.27.49-.35s.28-.12.44-.12.31.05.48.16c.16.11.34.26.55.46l1.9,2.14c.13.15.22.29.25.42s.05.25.05.38c0,.24-.07.44-.2.61-.13.17-.29.32-.47.45ZM233.72,179.99c-.47,0-.92.09-1.35.28-.44.18-.85.43-1.23.74-.38.31-.73.66-1.03,1.05-.3.39-.55.79-.74,1.19h9.16c-.25-.46-.52-.89-.82-1.28-.29-.39-.63-.74-1-1.03s-.81-.53-1.29-.69-1.05-.25-1.69-.25Z"/><path d="M21.55,43.57l4.18-.52,12.72-.52,13.07.17c24.22.35,42.35.87,47.23,13.07l1.05,2.61c1.05,2.79.87,6.1,1.39,8.89.35,1.22.7,5.23.7,9.41,0,4.71-.35,9.59-1.57,10.81-3.14,2.79-9.24.52-17.25.52-7.15,0-17.43,1.39-21.61.35-.7-5.23-1.74-10.28-1.74-15.34s-.52-7.84-9.24-7.84-7.84,5.75-7.84,9.41c0,7.15,2.79,12.03,7.84,13.94l3.83,1.05c21.44,5.75,38.52,6.97,44.09,16.9,6.45,11.68,3.83,24.05,3.83,33.98,0,4.01-2.79,7.49-4.88,9.41-3.83,6.1-13.42,9.76-23.53,11.15l-6.27.87c-3.31.87-7.32.87-11.33.87h-11.85c-2.61,0-5.4-.17-7.67-.35l-5.4-.52c-30.5-2.96-26.32-14.47-27.36-31.54,0-6.27-1.22-9.93,2.96-9.93h.7c9.41,0,16.91-.35,26.66-.35,9.93-.35,8.71,1.22,10.28,10.63,1.74,9.76,4.71,10.8,10.46,10.8,8.54,0,10.11-7.49,8.54-15.34l-.35-1.74c-2.09-5.23-7.15-6.27-10.28-7.32l-4.53-1.39c-1.22-.35-2.61-.87-4.01-1.22l-3.83-.87c-4.01-.87-8.37-2.44-12.03-3.49-15.51-4.01-23.35-18.3-23.35-36.42,0-21.44-.87-25.1,16.38-30.15Z"/><path d="M219.35,5.4l-5.93,12.9c-.7,1.39-1.22,2.79-2.09,4.18l-3.14,6.45c-4.36,6.8-14.29,24.57-37.47,37.82,8.71,2.27,23.7,26.32,28.58,48.45l1.92,7.67c1.05,6.62,2.27,13.42,2.27,19.69-.52.17-.87.17-1.39.17h-1.74c-28.93.17-28.58,1.22-28.58.17l-.52-7.32-.52-5.05-1.05-5.58c-1.39-7.32-3.14-19-8.89-24.92.17.17-6.62-8.19-11.33-11.85v17.25c0,1.57-.17,3.14-.17,4.36v1.92s-.17,7.14-.17,13.59l-1.05,14.47c-2.96,1.22-20.56,2.27-24.92,2.27-2.96,0-7.49-.35-7.49-3.14-.35-4.71-1.92-17.6-1.92-28.41,0-1.05.17-2.09.17-3.14,0-6.62-.52-15.68-.52-23.88v-2.09c0-1.57-.17-3.49-.17-5.05v-2.09c0-8.89-.7-28.06-.87-39.39-2.44-1.92-31.2-.17-31.2-1.92.17-12.2.35-22.66.7-32.24h.7c1.92,0,16.91-.7,28.23-.7s22.48.35,30.5,1.74c2.44,1.05,3.66,3.49,4.18,6.8l.7,10.28c0,.87.35,1.39.35,2.09v5.58c0,6.27,1.22,18.3,1.57,25.1l5.58-6.27,4.18-3.66c28.06-30.15,24.75-33.64,29.63-37.64,1.92,0,5.75-.87,9.41.35h7.67c4.71,0,9.93.7,14.81,1.05Z"/><path d="M212.38,151.45l-5.05-.52c0-1.22-.17-2.27-.17-3.31v-16.73c0-4.53.52-8.54.52-13.07v-6.45c0-2.61-.35-5.05.7-32.24l-2.79-35.38c3.14-.35,16.56-1.22,19.87-1.22s13.07.87,14.12,1.39l1.57,31.02v1.39c-1.57,10.81-.17,22.31-.17,33.29,0,5.75-2.44,23.88.17,39.21l-.17,2.27c-4.36,0-27.88-.7-28.58.35Z"/></g></svg>